<svg width="1437" height="57" viewBox="0 0 1437 57" fill="none" xmlns="http://www.w3.org/2000/svg">
<path d="M-5 48.263C16.1482 48.263 51.4749 8 97.8571 8C144.239 8 154.332 48.263 200.714 48.263C247.097 48.263 257.189 8 303.571 8C349.954 8 360.046 48.263 406.429 48.263C452.811 48.263 462.903 8 509.286 8C555.668 8 565.761 48.263 612.143 48.263C658.525 48.263 668.618 8 715 8C761.382 8 771.475 48.263 817.857 48.263C864.239 48.263 874.332 8.00001 920.714 8C967.097 7.99999 977.189 48.263 1023.57 48.263C1069.95 48.263 1080.05 8 1126.43 8C1172.81 8 1182.9 48.263 1229.29 48.263C1275.67 48.263 1285.76 8 1332.14 8C1378.53 8 1386.46 55.3091 1435 48.263" stroke="#FF0066" stroke-width="16"/>
</svg>
