<svg width="16" height="16" viewBox="0 0 16 16" fill="none" xmlns="http://www.w3.org/2000/svg">
<path d="M11 2H11.5V2.5H11V2Z" fill="#008080"/>
<path d="M10.5 3V2.5H11V3H10.5Z" fill="#008080"/>
<path d="M8 4.5V4H8.5V4.5H8Z" fill="#008080"/>
<path d="M7.5 5V4.5H8V5H7.5Z" fill="#008080"/>
<path fill-rule="evenodd" clip-rule="evenodd" d="M7 5.5H6.5V6H6V6.5H5.5V7H5V7.5H5.5V7H6V7.5H6.5V7H7V6.5H7.5V6H7V5.5ZM6.5 6.5V6H7V6.5H6.5ZM6.5 6.5V7H6V6.5H6.5Z" fill="#008080"/>
<path d="M7 5.5V5H7.5V5.5H7Z" fill="#008080"/>
<path fill-rule="evenodd" clip-rule="evenodd" d="M10.5 3.5V3H10V2.5H9.5V3H9V3.5H8.5V3H8V3.5H7.5V4H7V4.5H6.5V5H6V5.5H5.5V6H5V6.5H4.5V6H4V6.5H4.5V7H4V7.5H4.5V8H5V8.5H4.5V9H5V8.5H5.5V8H6V8.5H6.5V9H7V8.5H6.5V8H7V7.5H7.5V8H8V7.5H7.5V7H8V6.5H8.5V6H8V5.5H8.5V5H9V4.5H9.5V5H10V4.5H10.5V4H11V3.5H10.5ZM10 3.5H10.5V4H10V3.5ZM9.5 3.5H9V4H8.5V3.5H8V4H7.5V4.5H7V5H6.5V5.5H6V6H5.5V6.5H5V7H4.5V7.5H5V8H5.5V7.5H6V8H6.5V7.5H7V7H7.5V6.5H8V6H7.5V5.5H8V5H8.5V4.5H9V4H9.5V4.5H10V4H9.5V3.5ZM9.5 3.5V3H10V3.5H9.5Z" fill="#008080"/>
<path fill-rule="evenodd" clip-rule="evenodd" d="M3.5 5.5H3V5H3.5V4.5H3V5H2.5V5.5H2V6H1.5V6.5H1V7H1.5V6.5H2V7H2.5V6.5H3V6H3.5V5.5ZM2.5 6V6.5H2V6H2.5ZM2.5 6H3V5.5H2.5V6Z" fill="#008080"/>
<path d="M11 1.5H11.5V2H11V1.5Z" fill="#0000FF"/>
<path d="M7 5V4.5H7.5V5H7Z" fill="#0000FF"/>
<path d="M6.5 5.5V5H7V5.5H6.5Z" fill="#0000FF"/>
<path fill-rule="evenodd" clip-rule="evenodd" d="M6.5 6V5.5H6V6H5.5V6.5H5V7H5.5V7.5H6V8H6.5V7.5H7V7H7.5V6.5H7V6H6.5ZM6.5 6.5H7V7H6.5V6.5ZM6 6.5V6H6.5V6.5H6ZM6 7H5.5V6.5H6V7ZM6 7H6.5V7.5H6V7Z" fill="#0000FF"/>
<path fill-rule="evenodd" clip-rule="evenodd" d="M9 11.5V11H8.5V11.5H8V12H8.5V12.5H8V13H7.5V13.5H8V13H8.5V12.5H9V13H9.5V12.5H10V12H9.5V11.5H9ZM9 12H8.5V11.5H9V12ZM9 12V12.5H9.5V12H9Z" fill="#0000FF"/>
<path fill-rule="evenodd" clip-rule="evenodd" d="M11 2.5V2H10.5V2.5H10V3H9.5V3.5H9V3H8.5V2.5H7.5V3H7V3.5H6.5V4H6V4.5H5.5V5.5H5V6H4.5V6.5H4V6H3.5V6.5H3V7H3.5V7.5H4V7H4.5V7.5H5V8H5.5V8.5H5V9H5.5V9.5H6.5V10H7V10.5H7.5V11.5H7V12H7.5V12.5H7V13H6.5V13.5H6V14H5.5V14.5H6V14H6.5V14.5H7V14H7.5V14.5H8V14H8.5V13.5H9V14H9.5V13.5H10V13H10.5V12.5H11V12H11.5V11.5H11V11H10.5V11.5H10V11H9.5V10.5H9V10H9.5V9.5H9V9H9.5V8.5H9V8H8.5V7.5H9V7H9.5V6.5H10V7H10.5V6.5H11V6H11.5V5.5H12V5H12.5V4.5H12V5H11.5V5.5H11V6H10.5V6.5H10V6H9.5V6.5H8V6H7.5V5.5H8V5H8.5V4.5H9V5.5H9.5V4.5H10V4H10.5V3.5H11V3H11.5V3.5H12V4H12.5V3.5H13V3H12.5V2.5H13V2H12.5V1.5H12V2H11.5V2.5H11ZM12 2.5H11.5V3H12V3.5H12.5V3H12V2.5ZM12 2.5V2H12.5V2.5H12ZM10.5 3V2.5H11V3H10.5ZM10 3.5V3H10.5V3.5H10ZM9.5 4H10V3.5H9.5V4ZM9 4H9.5V4.5H9V4ZM8.5 4V4.5H8V4H8.5ZM8.5 3.5H9V4H8.5V3.5ZM8 3.5V3H8.5V3.5H8ZM7.5 4V3.5H8V4H7.5ZM7.5 4.5V4H7V4.5H6.5V5H6V5.5H5.5V6H5V6.5H4.5V7H5V7.5H5.5V8H6V8.5H6.5V9H7V8.5H6.5V8H7V7.5H7.5V8H8V7.5H7.5V7H8V6.5H7.5V6H7V5.5H7.5V5H8V4.5H7.5ZM9 9.5H8.5V10H9V9.5ZM9 11V10.5H8.5V11H8V11.5H7.5V12H8V12.5H7.5V13H7V13.5H6.5V14H7V13.5H7.5V14H8V13.5H8.5V13H9V13.5H9.5V13H10V12.5H10.5V12H11V11.5H10.5V12H10V11.5H9.5V11H9ZM4 7V6.5H3.5V7H4Z" fill="#0000FF"/>
<path fill-rule="evenodd" clip-rule="evenodd" d="M8 0.5H7.5V1H7V1.5H6.5V1H6V1.5H5.5V2H6V2.5H6.5V2H7V1.5H7.5V2H8V1.5H8.5V1H9V1.5H9.5V1H10V0.5H9.5V1H9V0.5H8.5V1H8V0.5ZM8 1V1.5H7.5V1H8ZM6.5 2H6V1.5H6.5V2Z" fill="#00FF00"/>
<path d="M5 2.5H5.5V3H5V2.5Z" fill="#00FF00"/>
<path d="M4.5 2.5H5V2H4.5V2.5Z" fill="#00FF00"/>
<path fill-rule="evenodd" clip-rule="evenodd" d="M4.5 3V2.5H4V3H3.5V3.5H3V4H3.5V4.5H4V5H4.5V4.5H4V4H4.5V3.5H5V3H4.5ZM4 3.5V3H4.5V3.5H4ZM4 3.5V4H3.5V3.5H4Z" fill="#00FF00"/>
<path d="M11.5 4H11V4.5H10.5V5H10V5.5H10.5V5H11V4.5H11.5V4Z" fill="#00FF00"/>
<path d="M8.5 5.5H9V6H8.5V5.5Z" fill="#00FF00"/>
<path d="M3.5 12V11.5H4V12H3.5Z" fill="#00FF00"/>
<path d="M3 12V11.5H2.5V12H3Z" fill="#00FF00"/>
<path d="M3 12H3.5V12.5H3V12Z" fill="#00FF00"/>
<path fill-rule="evenodd" clip-rule="evenodd" d="M2.5 8H2V8.5H1.5V9H1V9.5H1.5V10.5H1V11H1.5V12H2V12.5H2.5V13H3V13.5H3.5V13H4V12.5H4.5V13H5V12.5H5.5V12H6V11.5H5.5V11H6V10.5H5.5V10H5V9.5H4V8H3V8.5H2.5V8ZM2 9V9.5H1.5V9H2ZM2 9H2.5V8.5H2V9ZM5 10.5H5.5V11H5V10.5ZM4.5 10.5V10H5V10.5H4.5ZM4.5 11H5V11.5H4.5V11ZM4 11H4.5V10.5H4V10H3.5V10.5H4V11ZM4 11.5V11H3.5V11.5H3V11H2.5V11.5H2V12H2.5V12.5H3V13H3.5V12.5H4V12H4.5V12.5H5V12H5.5V11.5H5V12H4.5V11.5H4ZM1.5 11V10.5H2V11H1.5Z" fill="#00FF00"/>
<path d="M14 4.5H14.5V5H14V4.5Z" fill="#00FF00"/>
<path d="M13 7V6.5H13.5V7H13Z" fill="#00FF00"/>
<path d="M12.5 7.5V7H13V7.5H12.5Z" fill="#00FF00"/>
<path d="M12.5 8H13V8.5H12.5V8Z" fill="#00FF00"/>
<path d="M12 8H12.5V7.5H12V8Z" fill="#00FF00"/>
<path fill-rule="evenodd" clip-rule="evenodd" d="M12 8.5V8H11.5V8.5H11V9H11.5V9.5H11V10H11.5V9.5H12V10H12.5V9.5H12V9H12.5V8.5H12ZM12 8.5H11.5V9H12V8.5Z" fill="#00FF00"/>
<path fill-rule="evenodd" clip-rule="evenodd" d="M14 5.5V5H13.5V5.5H13V6H12.5V6.5H12V7H11.5V7.5H11V8H10.5V7.5H9.5V8.5H10V9H10.5V9.5H10V10H10.5V10.5H11V11H11.5V10.5H12V11H12.5V10.5H13V10H13.5V9.5H13V9H13.5V8.5H14V8H13.5V7.5H14V7H14.5V6.5H15V6H14.5V5.5H14ZM14 6H14.5V6.5H14V6ZM13.5 6H14V5.5H13.5V6ZM13.5 6.5V6H13V6.5H12.5V7H12V7.5H11.5V8H11V8.5H10.5V8H10V8.5H10.5V9H11V9.5H10.5V10H11V10.5H11.5V10H12V10.5H12.5V10H13V9.5H12.5V9H13V8.5H13.5V8H13V7.5H13.5V7H14V6.5H13.5Z" fill="#00FF00"/>
<path d="M11.5 13H11V13.5H11.5V13Z" fill="#00FF00"/>
<path fill-rule="evenodd" clip-rule="evenodd" d="M9.5 0.5H9V1H8.5V1.5H8V2H7.5V1.5H7V2H6.5V2.5H6V2H5.5V3H5V2.5H4.5V3H4V3.5H3.5V4H2.5V3.5H2V4H2.5V4.5H3.5V5.5H4V6H5V5.5H5.5V4.5H6V4H6.5V3.5H7V3H7.5V2.5H8.5V3H9.5V2.5H10V2H10.5V1.5H11V1H11.5V0.5H10V1H9.5V0.5ZM4 4.5H3.5V4H4V4.5ZM4 4.5H4.5V5H4V4.5ZM4.5 3.5H5V3H4.5V3.5ZM4.5 3.5V4H4V3.5H4.5ZM9.5 1V1.5H9V1H9.5Z" fill="#008000"/>
<path fill-rule="evenodd" clip-rule="evenodd" d="M5 10.5V10H4.5V10.5H4V10H3.5V10.5H4V11H3.5V11.5H3V11H2.5V11.5H2V12H2.5V12.5H3V13H3.5V12.5H4V12H4.5V12.5H5V12H5.5V11.5H5V11H5.5V10.5H5ZM4.5 11V10.5H5V11H4.5ZM4.5 11.5V11H4V11.5H3.5V12H3V11.5H2.5V12H3V12.5H3.5V12H4V11.5H4.5ZM4.5 11.5V12H5V11.5H4.5Z" fill="#008000"/>
<path fill-rule="evenodd" clip-rule="evenodd" d="M3 6.5H2.5V7H1.5V7.5H1V8H0.5V8.5H0V10H0.5V11.5H1V12.5H1.5V13H2V13.5H2.5V14H3V14.5H4.5V14H5V13.5H5.5V13H6.5V11.5H7.5V10.5H7V10H6.5V9.5H5.5V9H4.5V8.5H5V8H4.5V7.5H3.5V7H3V6.5ZM5 10V9.5H4V8H3.5V7.5H3V7H2.5V7.5H1.5V8H1V8.5H0.5V10H1V11.5H1.5V12.5H2V13H3V13.5H3.5V13H4V12.5H4.5V13H5V12.5H5.5V12H6V11.5H5.5V11H6V10.5H5.5V10H5Z" fill="#008000"/>
<path d="M11 3.5H11.5V4H11V3.5Z" fill="#008000"/>
<path fill-rule="evenodd" clip-rule="evenodd" d="M11 4.5V4H10.5V4.5H10V5H9.5V5.5H10V6H10.5V5.5H11V5H11.5V4.5H12V4H11.5V4.5H11ZM10.5 5V4.5H11V5H10.5ZM10.5 5V5.5H10V5H10.5Z" fill="#008000"/>
<path fill-rule="evenodd" clip-rule="evenodd" d="M13 7.5V8H13.5V8.5H13V9H12.5V8.5H12V8H12.5V7.5H13ZM13 8V8.5H12.5V8H13Z" fill="#008000"/>
<path fill-rule="evenodd" clip-rule="evenodd" d="M13.5 7H13V7.5H13.5V8H14V8.5H13.5V9H13V9.5H12.5V9H12V8.5H11.5V9H12V9.5H11.5V10H11V10.5H11.5V11.5H12V12H13V12.5H13.5V12H14V12.5H14.5V12H14V11.5H14.5V11H15V10.5H14.5V10H15V9.5H15.5V9H15V8.5H15.5V8H15V7.5H15.5V6H15V4.5H14.5V4H14V4.5H13V5H12.5V5.5H12V6.5H11V7H10V6.5H9.5V7H9V7.5H8.5V8H9V8.5H9.5V11H10.5V10H10V8.5H9.5V8H9V7.5H9.5V7H10V7.5H11V7H12V6.5H12.5V5.5H13V5H14V4.5H14.5V6H14V6.5H13.5V7ZM14 7V6.5H14.5V7H14ZM14 7H13.5V7.5H14V7ZM14.5 6.5V6H15V6.5H14.5ZM15 9H14.5V9.5H15V9ZM14.5 10.5V11H14V10.5H14.5ZM12 10.5H11.5V10H12V10.5ZM12.5 10.5H12V11H12.5V10.5ZM12.5 10V10.5H13V10H13.5V9.5H13V10H12.5ZM12.5 10H12V9.5H12.5V10Z" fill="#008000"/>
<path d="M11 12.5H11.5V13H11V12.5Z" fill="#008000"/>
<path d="M11 13V13.5H11.5V14H10.5V13H11Z" fill="#008000"/>
<path d="M8.5 5H9V5.5H8.5V5Z" fill="#008000"/>
<path d="M8.5 5.5V6H8V5.5H8.5Z" fill="#008000"/>
<path fill-rule="evenodd" clip-rule="evenodd" d="M13.5 2H13V2.5H13.5V3H14V3.5H14.5V4.5H15V6H15.5V7.5H15V8H15.5V8.5H15V9H14.5V9.5H15V10H14.5V10.5H14V11H14.5V11.5H14V12H13.5V12.5H13V12H12V11.5H11.5V11H11V10.5H10.5V11H10V11.5H10.5V11H11V11.5H11.5V12H12V12.5H13V13H13.5V13.5H13V14H12.5V14.5H11.5V14H12V13H11.5V14H11V14.5H11.5V15H10V15.5H6V15H4.5V14.5H5V14H5.5V13.5H6.5V13H7V11.5H6.5V13H5.5V13.5H5V14H4.5V14.5H3.5V15H4.5V15.5H6V16H10V15.5H11.5V15H12.5V14.5H13V14H13.5V13.5H14V13H14.5V12.5H15V11.5H15.5V10H16V6H15.5V4.5H15V3.5H14.5V3H14V2.5H13.5V2ZM15.5 9.5V9H15V9.5H15.5ZM14.5 12.5V12H14V12.5H14.5ZM14.5 11H15V10.5H14.5V11Z" fill="black"/>
<path d="M9 5.5H9.5V6H9V5.5Z" fill="black"/>
<path d="M9 6V6.5H8.5V6H9Z" fill="black"/>
<path d="M10 0H6V0.5H4.5V1H3.5V1.5H3V2H2.5V2.5H2V3H1.5V3.5H1V4.5H0.5V6H0V8.5H0.5V6H1V4.5H1.5V3.5H2V3H2.5V2.5H3V2H3.5V1.5H4.5V1H6V0.5H10V0Z" fill="#808080"/>
<path d="M11 1H12.5V1.5H12V2H11.5V1.5H11V1Z" fill="#000080"/>
<path d="M10.5 2V1.5H11V2H10.5Z" fill="#000080"/>
<path d="M10.5 2V2.5H10V2H10.5Z" fill="#000080"/>
<path d="M12.5 2H13V1.5H12.5V2Z" fill="#000080"/>
<path d="M12.5 3V3.5H12V3H12.5Z" fill="#000080"/>
<path fill-rule="evenodd" clip-rule="evenodd" d="M12.5 2.5V2H12V2.5H11.5V3H11V3.5H11.5V4H12V4.5H11.5V5H11V5.5H10.5V6H10V5.5H9.5V6H9V6.5H9.5V6H10V6.5H10.5V7H11V6.5H12V5.5H12.5V5H13V4.5H14V4H14.5V3.5H14V3H13.5V2.5H12.5ZM12.5 3V2.5H12V3H11.5V3.5H12V4H12.5V3.5H13V3H12.5ZM12 5V4.5H12.5V5H12ZM11.5 5.5V5H12V5.5H11.5ZM11 6V5.5H11.5V6H11ZM11 6V6.5H10.5V6H11Z" fill="#000080"/>
<path d="M9 9H9.5V9.5H9V9Z" fill="#000080"/>
<path d="M9 10H8.5V9.5H9V10Z" fill="#000080"/>
<path d="M9 10.5V10H9.5V10.5H9Z" fill="#000080"/>
<path d="M8.5 12.5H8V12H8.5V12.5Z" fill="#000080"/>
<path d="M8.5 13H8V13.5H7.5V14H8V13.5H8.5V13Z" fill="#000080"/>
<path d="M9 13V13.5H9.5V13H10V12.5H9.5V13H9Z" fill="#000080"/>
<path d="M9 13H8.5V12.5H9V13Z" fill="#000080"/>
<path d="M10.5 12.5V13H11V12.5H10.5Z" fill="#000080"/>
<path fill-rule="evenodd" clip-rule="evenodd" d="M9 11V10.5H8.5V11H8V11.5H7.5V12H7V12.5H7.5V13H7V13.5H6.5V14H6V13.5H5.5V14H5V14.5H4.5V15H6V15.5H10V15H11.5V14.5H12.5V14H13V13.5H13.5V13H13V12.5H12V12H11V11.5H10.5V12H10V11.5H9.5V11H9ZM9 11.5H9.5V12H9V11.5ZM8.5 11.5H9V11H8.5V11.5ZM8.5 12V11.5H8V12H7.5V12.5H8V13H7.5V13.5H7V14H6.5V14.5H7V14H7.5V14.5H8V14H8.5V13.5H9V14H9.5V13.5H10V13H10.5V14H11V14.5H11.5V14H12V13H11.5V12.5H11V12H10.5V12.5H10V12H9.5V12.5H9V12H8.5ZM5.5 14H6V14.5H5.5V14Z" fill="#000080"/>
<path d="M2 4H2.5V4.5H2V4Z" fill="#00FFFF"/>
<path fill-rule="evenodd" clip-rule="evenodd" d="M3 5V4.5H2.5V5H2V5.5H1.5V6H2V6.5H1.5V7H1V7.5H0.5V8H1V7.5H1.5V7H2V6.5H2.5V6H3V6.5H3.5V7H4V6.5H3.5V6H4V5.5H3.5V5H3ZM3 5.5V6H3.5V5.5H3ZM2.5 5.5V5H3V5.5H2.5ZM2.5 5.5H2V6H2.5V5.5Z" fill="#00FFFF"/>
<path d="M2.5 13H2V12.5H2.5V13ZM2 12.5H1.5V12H2V12.5ZM1.5 11.5H1V11H1.5V11.5ZM11 10H10.5V9.5H11V10ZM10.5 9.5H10V9H10.5V9.5ZM11.5 9.5H11V9H11.5V9.5ZM1 9H0.5V8.5H1V9ZM11 9H10.5V8.5H11V9ZM1.5 8.5H1V8H1.5V8.5ZM10.5 8.5H10V8H10.5V8.5ZM11.5 8.5H11V8H11.5V8.5ZM2 8H1.5V7.5H2V8ZM9.5 8H9V7.5H9.5V8ZM11 8H10.5V7.5H11V8ZM12 8H11.5V7.5H12V8ZM3 7.5H2.5V7H3V7.5ZM10 7.5H9.5V7H10V7.5ZM11.5 7.5H11V7H11.5V7.5ZM12.5 7.5H12V7H12.5V7.5ZM13 7H12.5V6.5H13V7ZM1 6.5H0.5V6H1V6.5ZM13.5 6.5H13V6H13.5V6.5ZM13 6H12.5V5.5H13V6ZM14 6H13.5V5.5H14V6ZM13.5 5.5H13V5H13.5V5.5ZM14.5 5.5H14V5H14.5V5.5ZM1.5 5H1V4.5H1.5V5ZM2 4H1.5V3.5H2V4ZM3 4H2.5V3.5H3V4ZM3.5 3.5H3V3H3.5V3.5ZM4 3H3.5V2.5H4V3ZM4.5 2.5H4V2H4.5V2.5ZM5.5 2.5H5V1.5H5.5V2.5ZM6.5 2H6V1.5H6.5V2ZM6 1.5H5.5V1H6V1.5ZM7 1.5H6.5V1H7V1.5ZM8 1.5H7.5V1H8V1.5ZM7.5 1H7V0.5H7.5V1ZM8.5 1H8V0.5H8.5V1Z" fill="#C0C0C0"/>
<path d="M7 0.5H6V1H7V0.5Z" fill="white"/>
<path d="M4.5 1H5.5V1.5H5V2H4V2.5H3.5V3H3V3.5H2V3H2.5V2.5H3V2H3.5V1.5H4.5V1Z" fill="white"/>
<path d="M1.5 4H2V4.5H2.5V5H2V5.5H1.5V6.5H1V5H1.5V4Z" fill="white"/>
<path d="M1 6.5V7.5H0.5V6.5H1Z" fill="white"/>
<path d="M1 8.5H1.5V9H1V8.5Z" fill="white"/>
<path d="M1.5 9.5V9H2V9.5H1.5Z" fill="white"/>
<path d="M1.5 10.5H1V10H0.5V9H1V9.5H1.5V10.5Z" fill="white"/>
<path d="M1.5 10.5H2V11H1.5V10.5Z" fill="white"/>
<path fill-rule="evenodd" clip-rule="evenodd" d="M2 8.5V9H2.5V8.5H3V8H3.5V7.5H2V8H1.5V8.5H2ZM2 8.5H2.5V8H2V8.5Z" fill="white"/>
</svg>
